<svg xmlns="http://www.w3.org/2000/svg" height="247.296" viewBox="0 0 67.733 65.431" width="256"><path d="M39.255 1.085a4 4 0 0 0 -1.29 0.232c0.844 0.562 1.307 1.307 1.539 2.15 0.017 0.116 0.05 0.199 0.066 0.314 0.017 0.099 0.033 0.198 0.033 0.298 0.066 1.456 -0.381 1.638 -0.695 2.498a3.54 3.54 0 0 0 0.232 3.259c0.05 0.116 0.116 0.248 0.199 0.364 -0.629 -4.185 2.862 -4.814 3.507 -6.121 0.05 -1.142 -0.893 -1.902 -1.638 -2.432 -0.712 -0.43 -1.357 -0.562 -1.952 -0.562m5.261 0.943c-0.067 0.381 -0.017 0.281 -0.033 0.48 -0.016 0.132 -0.016 0.298 -0.033 0.43 -0.033 0.132 -0.066 0.265 -0.116 0.397 -0.033 0.132 -0.083 0.265 -0.132 0.397 -0.066 0.132 -0.116 0.248 -0.182 0.38 -0.05 0.066 -0.083 0.132 -0.133 0.199l-0.099 0.149a6 6 0 0 1 -0.248 0.331c-0.099 0.099 -0.182 0.215 -0.298 0.298v0.017c-0.099 0.083 -0.198 0.182 -0.314 0.265 -0.347 0.264 -0.744 0.463 -1.108 0.711 -0.116 0.083 -0.231 0.149 -0.331 0.248a2.4 2.4 0 0 0 -0.314 0.264c-0.116 0.099 -0.199 0.199 -0.298 0.314 -0.083 0.099 -0.182 0.215 -0.248 0.331a4 4 0 0 0 -0.232 0.347c-0.066 0.132 -0.116 0.248 -0.182 0.38 -0.05 0.132 -0.099 0.248 -0.132 0.38a5 5 0 0 0 -0.116 0.414c-0.016 0.066 -0.016 0.149 -0.033 0.215s-0.017 0.132 -0.033 0.198c0 0.132 -0.017 0.281 -0.017 0.414 0 0.099 0 0.198 0.017 0.298 0 0.132 0.017 0.265 0.05 0.413 0.017 0.132 0.05 0.265 0.083 0.397 0.05 0.132 0.083 0.265 0.132 0.397 0.033 0.083 0.083 0.166 0.116 0.232l-3.805 -1.473a41 41 0 0 0 -1.919 -0.496l-1.042 -0.248a31 31 0 0 0 -3.011 -0.446c-0.033 0 -0.05 -0.017 -0.083 -0.017a30 30 0 0 0 -2.961 -0.149c-0.728 0 -1.456 0.033 -2.167 0.083a31 31 0 0 0 -3.027 0.364c-0.248 0.033 -0.497 0.083 -0.744 0.132 -0.513 0.099 -1.009 0.215 -1.489 0.331l-0.744 0.198c-0.248 0.099 -0.48 0.215 -0.711 0.314l-0.546 0.248c-0.033 0.016 -0.066 0.016 -0.083 0.033 -0.165 0.083 -0.314 0.149 -0.463 0.232a1 1 0 0 0 -0.116 0.05 7 7 0 0 0 -0.513 0.265c-0.116 0.05 -0.232 0.116 -0.331 0.165 -0.05 0.033 -0.116 0.066 -0.149 0.083 -0.149 0.083 -0.298 0.165 -0.43 0.248q-0.223 0.124 -0.397 0.248c-0.116 0.083 -0.232 0.149 -0.331 0.231 -0.017 0.017 -0.033 0.017 -0.05 0.033a4 4 0 0 0 -0.314 0.231l-0.033 0.033 -0.248 0.198c-0.033 0.016 -0.067 0.05 -0.099 0.066 -0.083 0.066 -0.165 0.149 -0.248 0.215 -0.016 0.033 -0.049 0.05 -0.066 0.066 -0.099 0.099 -0.198 0.182 -0.298 0.281 -0.017 0 -0.017 0.017 -0.033 0.033 -0.099 0.083 -0.198 0.182 -0.298 0.281 -0.016 0.017 -0.016 0.033 -0.033 0.033a4 4 0 0 0 -0.248 0.264c-0.033 0.033 -0.083 0.066 -0.116 0.099 -0.083 0.099 -0.182 0.198 -0.281 0.298 -0.017 0.033 -0.05 0.05 -0.066 0.083 -0.132 0.132 -0.248 0.265 -0.381 0.397l-0.049 0.05a10 10 0 0 1 -0.844 0.81 10 10 0 0 1 -0.926 0.728 13 13 0 0 1 -0.993 0.629 10 10 0 0 1 -1.042 0.496 12 12 0 0 1 -1.075 0.397c-0.695 0.149 -1.406 0.43 -2.018 0.48 -0.132 0 -0.281 0.033 -0.413 0.05 -0.149 0.033 -0.281 0.066 -0.414 0.099l-0.397 0.149c-0.133 0.049 -0.265 0.116 -0.397 0.182 -0.116 0.083 -0.248 0.149 -0.364 0.232s-0.232 0.182 -0.331 0.281c-0.116 0.083 -0.231 0.198 -0.331 0.298 -0.099 0.116 -0.198 0.215 -0.281 0.331 -0.083 0.132 -0.182 0.248 -0.248 0.38a3 3 0 0 0 -0.231 0.381c-0.067 0.149 -0.132 0.281 -0.182 0.43a13 13 0 0 0 -0.149 0.43 4 4 0 0 0 -0.083 0.397c0 0.017 -0.017 0.033 -0.017 0.05 -0.033 0.149 -0.033 0.347 -0.05 0.446 -0.016 0.116 -0.033 0.215 -0.033 0.331 0 0.066 0 0.149 0.017 0.215 0.017 0.116 0.033 0.215 0.066 0.314s0.066 0.198 0.116 0.298v0.016c0.05 0.099 0.116 0.199 0.182 0.298 0.067 0.099 0.133 0.198 0.215 0.298 0.083 0.083 0.182 0.182 0.282 0.265 0.099 0.099 0.198 0.182 0.314 0.265 0.397 0.347 0.496 0.463 1.009 0.728 0.083 0.05 0.165 0.083 0.265 0.132 0.017 0 0.033 0.016 0.05 0.016 0 0.033 0 0.05 0.016 0.083 0.017 0.132 0.05 0.265 0.083 0.397a2.2 2.2 0 0 0 0.132 0.397c0.05 0.099 0.083 0.199 0.132 0.298 0.017 0.033 0.033 0.066 0.05 0.083 0.066 0.132 0.132 0.248 0.199 0.364l0.248 0.347c0.083 0.099 0.182 0.215 0.281 0.314s0.198 0.182 0.314 0.281c0 0 0.017 0.016 0.033 0.016 0.099 0.083 0.198 0.166 0.298 0.232 0.116 0.083 0.231 0.149 0.364 0.215 0.116 0.066 0.248 0.132 0.381 0.182 0.099 0.05 0.215 0.083 0.331 0.116 0.017 0.017 0.033 0.017 0.066 0.033l0.215 0.049c-0.049 0.893 -0.066 1.737 0.067 2.035 0.148 0.331 0.877 -0.678 1.604 -1.836 -0.099 1.141 -0.165 2.481 0 2.878 0.182 0.414 1.175 -0.877 2.035 -2.299 11.724 -2.708 22.427 5.398 23.552 16.845 -0.215 -1.787 -2.415 -2.779 -3.425 -2.531 -0.496 1.224 -1.34 2.796 -2.696 3.772a10.6 10.6 0 0 0 -0.165 -3.309 10.7 10.7 0 0 1 -2.051 4.169c-1.571 0.116 -3.143 -0.645 -3.97 -1.787 -0.066 -0.049 -0.083 -0.148 -0.132 -0.215a3 3 0 0 1 -0.132 -0.347 1.4 1.4 0 0 1 -0.099 -0.347c-0.017 -0.116 -0.017 -0.232 -0.017 -0.364v-0.248c0.017 -0.116 0.05 -0.231 0.083 -0.347s0.066 -0.232 0.116 -0.347c0.066 -0.116 0.116 -0.232 0.198 -0.347 0.281 -0.794 0.281 -1.439 -0.231 -1.82a2 2 0 0 0 -0.314 -0.166c-0.066 -0.016 -0.149 -0.049 -0.215 -0.066 -0.05 -0.017 -0.083 -0.033 -0.132 -0.05 -0.116 -0.033 -0.232 -0.066 -0.347 -0.083a1.3 1.3 0 0 0 -0.347 -0.05 3 3 0 0 0 -0.364 -0.033c-0.083 0 -0.165 0.017 -0.248 0.017a1.3 1.3 0 0 0 -0.364 0.049c-0.116 0.017 -0.232 0.033 -0.348 0.066s-0.232 0.066 -0.347 0.116c-0.116 0.05 -0.215 0.099 -0.331 0.149 -0.099 0.05 -0.199 0.116 -0.314 0.165 -3.854 2.514 -1.555 8.404 1.075 10.108 -0.993 0.182 -2.002 0.397 -2.283 0.612l-0.033 0.033c0.712 0.43 1.456 0.794 2.233 1.108a55 55 0 0 0 2.68 0.794v0.017a16 16 0 0 0 4.169 0.298c7.328 -0.513 13.333 -6.088 14.425 -13.433 0.033 0.149 0.066 0.281 0.099 0.43 0.05 0.298 0.116 0.612 0.149 0.926v0.016c0.033 0.149 0.05 0.298 0.066 0.43v0.067c0.017 0.148 0.033 0.297 0.033 0.43 0.016 0.182 0.033 0.364 0.033 0.546v0.265c0 0.083 0.017 0.182 0.017 0.264 0 0.099 -0.017 0.199 -0.017 0.298v0.231c0 0.116 -0.017 0.215 -0.017 0.331 0 0.066 0 0.132 -0.016 0.215 0 0.116 -0.017 0.231 -0.017 0.364 -0.017 0.05 -0.017 0.099 -0.017 0.149 -0.016 0.132 -0.033 0.248 -0.05 0.38 0 0.05 0 0.099 -0.016 0.149 -0.017 0.165 -0.05 0.314 -0.066 0.48v0.033c-0.033 0.149 -0.066 0.314 -0.099 0.463v0.049l-0.099 0.447c0 0.017 -0.017 0.05 -0.017 0.066a4 4 0 0 1 -0.116 0.446v0.05c-0.05 0.166 -0.099 0.314 -0.132 0.463 -0.017 0.016 -0.017 0.033 -0.017 0.033l-0.149 0.496c-0.066 0.166 -0.116 0.314 -0.182 0.48s-0.116 0.331 -0.182 0.48c-0.066 0.166 -0.132 0.314 -0.199 0.48h-0.016c-0.067 0.149 -0.132 0.314 -0.215 0.463a1 1 0 0 1 -0.05 0.116c-0.017 0.017 -0.017 0.033 -0.033 0.05a15.66 15.66 0 0 1 -4.648 5.558 6 6 0 0 0 -0.397 0.281c-0.033 0.033 -0.083 0.049 -0.116 0.083a7 7 0 0 1 -0.364 0.248l0.049 0.099h0.017l0.695 -0.099h0.017c0.43 -0.066 0.86 -0.149 1.29 -0.232 0.116 -0.017 0.248 -0.05 0.364 -0.083l0.231 -0.05c0.116 -0.016 0.232 -0.05 0.347 -0.066 0.099 -0.033 0.199 -0.05 0.298 -0.083a31.4 31.4 0 0 0 4.797 -1.588 26.5 26.5 0 0 1 -10.273 8.387 27 27 0 0 0 5.641 -0.976 26.43 26.43 0 0 0 15.633 -12.49 26.4 26.4 0 0 1 -4.45 10.637 26 26 0 0 0 4.417 -3.672 26.2 26.2 0 0 0 6.964 -14.061 26.3 26.3 0 0 1 0.48 7.974c11.944 -16.658 0.993 -33.929 -3.59 -38.478 -0.016 -0.033 -0.033 -0.05 -0.033 -0.083 -0.016 0.016 -0.016 0.016 -0.016 0.033 0 -0.017 0 -0.017 -0.017 -0.033 0 0.199 -0.017 0.397 -0.033 0.596 -0.049 0.38 -0.099 0.744 -0.165 1.108 -0.083 0.364 -0.182 0.728 -0.281 1.092a14 14 0 0 1 -0.397 1.059 14 14 0 0 1 -0.497 1.009c-0.182 0.314 -0.38 0.645 -0.595 0.943a13 13 0 0 1 -0.678 0.893c-0.248 0.298 -0.513 0.562 -0.777 0.827a11 11 0 0 1 -0.48 0.414l-0.381 0.331a9 9 0 0 1 -0.926 0.645 11 11 0 0 1 -0.976 0.563c-0.347 0.165 -0.695 0.314 -1.042 0.463 -0.348 0.132 -0.712 0.248 -1.075 0.347a13 13 0 0 1 -1.108 0.248c-0.38 0.066 -0.761 0.099 -1.125 0.132 -0.265 0.017 -0.529 0.033 -0.794 0.033 -0.38 0 -0.761 -0.033 -1.125 -0.067a8 8 0 0 1 -1.125 -0.165 9 9 0 0 1 -1.108 -0.281h-0.016c0.364 -0.033 0.728 -0.066 1.092 -0.132a12 12 0 0 0 1.108 -0.248 12 12 0 0 0 1.075 -0.347 10 10 0 0 0 1.042 -0.463c0.348 -0.165 0.662 -0.347 0.993 -0.546 0.314 -0.215 0.628 -0.43 0.926 -0.662a9 9 0 0 0 0.844 -0.744c0.281 -0.248 0.529 -0.529 0.777 -0.81a16 16 0 0 0 0.695 -0.893c0.033 -0.049 0.066 -0.116 0.099 -0.165 0.165 -0.265 0.331 -0.529 0.48 -0.794a12 12 0 0 0 0.496 -1.009 12 12 0 0 0 0.397 -1.059c0.116 -0.347 0.199 -0.711 0.281 -1.075 0.066 -0.38 0.132 -0.744 0.165 -1.108 0.033 -0.38 0.066 -0.761 0.066 -1.125 0 -0.265 -0.017 -0.529 -0.033 -0.794 -0.033 -0.38 -0.082 -0.744 -0.132 -1.108a12 12 0 0 0 -0.248 -1.108c-0.116 -0.347 -0.231 -0.711 -0.364 -1.059s-0.298 -0.695 -0.463 -1.026c-0.182 -0.331 -0.364 -0.662 -0.562 -0.976a18 18 0 0 0 -0.662 -0.91 35 35 0 0 0 -0.761 -0.844 10 10 0 0 0 -0.43 -0.413 31 31 0 0 0 -2.299 -1.621 3 3 0 0 0 -0.331 -0.165c-0.546 -0.347 -1.059 -0.529 -1.571 -0.695z" fill="#e0234e" fill-rule="evenodd"/></svg>